<svg width="24" height="18" viewBox="0 0 24 18" fill="none" xmlns="http://www.w3.org/2000/svg">
<path d="M0.500652 1.46044C3.79456 4.25002 9.57434 9.15773 11.2731 10.688C11.5011 10.8945 11.7457 10.9995 11.9997 10.9995C12.2531 10.9995 12.4972 10.8955 12.7248 10.6899C14.425 9.1582 20.2047 4.25002 23.4987 1.46044C23.7038 1.28709 23.735 0.982406 23.569 0.770484C23.1852 0.280781 22.613 0 21.9996 0H1.99967C1.3864 0 0.814105 0.280781 0.430339 0.770531C0.264308 0.982406 0.295574 1.28709 0.500652 1.46044Z" fill="white"/>
<path d="M23.71 2.9724C23.5327 2.8899 23.3242 2.91868 23.1768 3.04468C19.5239 6.14133 14.8618 10.1106 13.395 11.4324C12.5717 12.1755 11.4292 12.1755 10.604 11.4314C9.0405 10.0227 3.80512 5.57199 0.823219 3.04463C0.674766 2.91863 0.465797 2.89083 0.290016 2.97235C0.113297 3.05443 0 3.23119 0 3.42601V16.0002C0 17.1033 0.896953 18.0002 2.00002 18.0002H22C23.103 18.0002 24 17.1033 24 16.0002V3.42601C24 3.23119 23.8867 3.05396 23.71 2.9724Z" fill="white"/>
</svg>
