<svg width="18" height="24" viewBox="0 0 18 24" fill="none" xmlns="http://www.w3.org/2000/svg">
<path d="M9.00049 0C4.16237 0 0.226318 4.00679 0.226318 8.93181C0.226318 11.6867 1.61963 15.0304 4.36769 18.8701C6.37872 21.6802 8.36041 23.6843 8.4438 23.7683C8.59708 23.9226 8.79874 24 9.00063 24C9.19666 24 9.39284 23.927 9.5449 23.7805C9.62848 23.7 11.6152 21.777 13.63 19.0058C16.3803 15.2229 17.7748 11.8336 17.7748 8.93177C17.7747 4.00679 13.8385 0 9.00049 0ZM9.00049 12.7878C6.63517 12.7878 4.71091 10.8635 4.71091 8.49822C4.71091 6.13295 6.63522 4.20863 9.00049 4.20863C11.3658 4.20863 13.2901 6.13295 13.2901 8.49822C13.2901 10.8635 11.3657 12.7878 9.00049 12.7878Z" fill="white"/>
</svg>
