<svg width="34" height="34" viewBox="0 0 34 34" fill="none" xmlns="http://www.w3.org/2000/svg">
<path d="M4.25004 4.25H29.75C30.1258 4.25 30.4861 4.39926 30.7518 4.66493C31.0175 4.93061 31.1667 5.29094 31.1667 5.66667V28.3333C31.1667 28.7091 31.0175 29.0694 30.7518 29.3351C30.4861 29.6007 30.1258 29.75 29.75 29.75H4.25004C3.87432 29.75 3.51398 29.6007 3.24831 29.3351C2.98263 29.0694 2.83337 28.7091 2.83337 28.3333V5.66667C2.83337 5.29094 2.98263 4.93061 3.24831 4.66493C3.51398 4.39926 3.87432 4.25 4.25004 4.25ZM28.3334 10.2538L17.102 20.3122L5.66671 10.2227V26.9167H28.3334V10.2538ZM6.39062 7.08333L17.0865 16.5212L27.6279 7.08333H6.39062Z" fill="#218986"/>
<defs>
<linearGradient id="paint0_linear_188:37" x1="2.57759" y1="17" x2="31.1667" y2="17" gradientUnits="userSpaceOnUse">
<stop stop-color="#218986"/>
<stop offset="0.529167" stop-color="#0E6774"/>
<stop offset="1" stop-color="#0C6766"/>
</linearGradient>
</defs>
</svg>
