<svg width="34" height="34" viewBox="0 0 34 34" fill="none" xmlns="http://www.w3.org/2000/svg">
<path d="M20.3128 28.1822H28.1822V6.14778H6.14778V28.1822H17.165V20.3128H14.0172V17.165H17.165V14.5618C17.165 12.4575 17.3853 11.6942 17.7946 10.9245C18.1977 10.1631 18.8207 9.54059 19.5825 9.13817C20.1837 8.81552 20.9313 8.62193 22.2376 8.53852C22.7555 8.50546 23.4259 8.54638 24.2491 8.66443V11.6548H23.4606C22.0173 11.6548 21.4208 11.7225 21.0651 11.9129C20.8529 12.0221 20.6801 12.1949 20.5709 12.4071C20.382 12.7628 20.3128 13.1154 20.3128 14.5602V17.165H24.2475L23.4606 20.3128H20.3128V28.1822ZM4.57389 3H29.7561C30.1735 3 30.5739 3.16582 30.869 3.46098C31.1642 3.75614 31.33 4.15647 31.33 4.57389V29.7561C31.33 30.1735 31.1642 30.5739 30.869 30.869C30.5739 31.1642 30.1735 31.33 29.7561 31.33H4.57389C4.15647 31.33 3.75614 31.1642 3.46098 30.869C3.16582 30.5739 3 30.1735 3 29.7561V4.57389C3 4.15647 3.16582 3.75614 3.46098 3.46098C3.75614 3.16582 4.15647 3 4.57389 3Z" fill="#218986"/>
<defs>
<linearGradient id="paint0_linear_188:31" x1="2.74424" y1="17.165" x2="31.33" y2="17.165" gradientUnits="userSpaceOnUse">
<stop stop-color="#218986"/>
<stop offset="0.529167" stop-color="#0E6774"/>
<stop offset="1" stop-color="#0C6766"/>
</linearGradient>
</defs>
</svg>
