<svg width="34" height="34" viewBox="0 0 34 34" fill="none" xmlns="http://www.w3.org/2000/svg">
<path d="M17 12.75C15.8729 12.75 14.7919 13.1978 13.9948 13.9948C13.1978 14.7919 12.75 15.8729 12.75 17C12.75 18.1272 13.1978 19.2082 13.9948 20.0052C14.7919 20.8023 15.8729 21.25 17 21.25C18.1272 21.25 19.2082 20.8023 20.0052 20.0052C20.8023 19.2082 21.25 18.1272 21.25 17C21.25 15.8729 20.8023 14.7919 20.0052 13.9948C19.2082 13.1978 18.1272 12.75 17 12.75ZM17 9.91671C18.8787 9.91671 20.6803 10.663 22.0087 11.9914C23.3371 13.3198 24.0834 15.1214 24.0834 17C24.0834 18.8787 23.3371 20.6803 22.0087 22.0087C20.6803 23.3371 18.8787 24.0834 17 24.0834C15.1214 24.0834 13.3198 23.3371 11.9914 22.0087C10.663 20.6803 9.91671 18.8787 9.91671 17C9.91671 15.1214 10.663 13.3198 11.9914 11.9914C13.3198 10.663 15.1214 9.91671 17 9.91671ZM26.2084 9.56254C26.2084 10.0322 26.0218 10.4826 25.6897 10.8147C25.3576 11.1468 24.9072 11.3334 24.4375 11.3334C23.9679 11.3334 23.5175 11.1468 23.1854 10.8147C22.8533 10.4826 22.6667 10.0322 22.6667 9.56254C22.6667 9.09289 22.8533 8.64247 23.1854 8.31037C23.5175 7.97828 23.9679 7.79171 24.4375 7.79171C24.9072 7.79171 25.3576 7.97828 25.6897 8.31037C26.0218 8.64247 26.2084 9.09289 26.2084 9.56254ZM17 5.66671C13.4952 5.66671 12.9229 5.67662 11.2923 5.74887C10.1816 5.80129 9.43646 5.95004 8.74512 6.21921C8.13029 6.45721 7.68687 6.74196 7.21512 7.21512C6.77172 7.64352 6.43079 8.16653 6.21779 8.74512C5.94862 9.43929 5.79987 10.183 5.74887 11.2923C5.67521 12.8563 5.66671 13.4031 5.66671 17C5.66671 20.5049 5.67662 21.0772 5.74887 22.7078C5.80129 23.817 5.95004 24.5636 6.21779 25.2535C6.45862 25.8698 6.74196 26.3132 7.21229 26.7835C7.68971 27.2595 8.13312 27.5443 8.74229 27.7795C9.44212 28.05 10.1873 28.2002 11.2923 28.2512C12.8563 28.3249 13.4031 28.3334 17 28.3334C20.5049 28.3334 21.0772 28.3235 22.7078 28.2512C23.8156 28.1988 24.5622 28.05 25.2535 27.7823C25.867 27.5429 26.3132 27.2581 26.7835 26.7878C27.261 26.3104 27.5457 25.867 27.7809 25.2578C28.05 24.5594 28.2002 23.8128 28.2512 22.7078C28.3249 21.1438 28.3334 20.597 28.3334 17C28.3334 13.4952 28.3235 12.9229 28.2512 11.2923C28.1988 10.1845 28.05 9.43646 27.7809 8.74512C27.5674 8.16713 27.2271 7.64432 26.785 7.21512C26.3567 6.77149 25.8337 6.43053 25.255 6.21779C24.5608 5.94862 23.8156 5.79987 22.7078 5.74887C21.1438 5.67521 20.597 5.66671 17 5.66671ZM17 2.83337C20.8491 2.83337 21.3294 2.84754 22.8395 2.91837C24.3483 2.98921 25.3754 3.22579 26.2792 3.57712C27.2142 3.93696 28.0019 4.42429 28.7895 5.21054C29.5099 5.91873 30.0673 6.77538 30.423 7.72087C30.7729 8.62329 31.0109 9.65179 31.0817 11.1605C31.1483 12.6707 31.1667 13.151 31.1667 17C31.1667 20.8491 31.1525 21.3294 31.0817 22.8395C31.0109 24.3483 30.7729 25.3754 30.423 26.2792C30.0683 27.2252 29.5108 28.0821 28.7895 28.7895C28.0812 29.5097 27.2246 30.067 26.2792 30.423C25.3768 30.7729 24.3483 31.0109 22.8395 31.0817C21.3294 31.1483 20.8491 31.1667 17 31.1667C13.151 31.1667 12.6707 31.1525 11.1605 31.0817C9.65179 31.0109 8.62471 30.7729 7.72087 30.423C6.775 30.068 5.9182 29.5105 5.21054 28.7895C4.49003 28.0815 3.93261 27.2248 3.57712 26.2792C3.22579 25.3768 2.98921 24.3483 2.91837 22.8395C2.85179 21.3294 2.83337 20.8491 2.83337 17C2.83337 13.151 2.84754 12.6707 2.91837 11.1605C2.98921 9.65037 3.22579 8.62471 3.57712 7.72087C3.93163 6.77479 4.48918 5.91791 5.21054 5.21054C5.91841 4.48978 6.77515 3.93232 7.72087 3.57712C8.62471 3.22579 9.65037 2.98921 11.1605 2.91837C12.6707 2.85179 13.151 2.83337 17 2.83337Z" fill="url(#paint0_linear_188:34)"/>
<defs>
<linearGradient id="paint0_linear_188:34" x1="2.57759" y1="17" x2="31.1667" y2="17" gradientUnits="userSpaceOnUse">
<stop stop-color="#218986"/>
<stop offset="0.529167" stop-color="#0E6774"/>
<stop offset="1" stop-color="#0C6766"/>
</linearGradient>
</defs>
</svg>
