<svg width="356" height="120" viewBox="0 0 356 120" fill="none" xmlns="http://www.w3.org/2000/svg">
<g opacity="0.6">
<path d="M1 1C1 1 18.4624 22 22.1355 35.5C29.2957 61.816 43.1732 63.5 54.1732 59C65.1732 54.5 65.6637 28.8302 52.6731 24.5C43.6731 21.5 22.0566 17.3007 14.6731 57.5C10.1731 82 29.0055 94.6856 48.1732 93.5C96.6731 90.5 189.12 -1.84154 293.173 44C313.673 53.0315 333.873 80.9 338.673 102.5" stroke="white" stroke-width="2" stroke-dasharray="6 6"/>
<path d="M339.985 114.824C340.967 115.634 342.446 115.332 343.032 114.201L348.842 102.993C349.616 101.5 348.314 99.7761 346.666 100.113L331.115 103.29C329.468 103.627 328.946 105.723 330.243 106.793L339.985 114.824Z" fill="white"/>
</g>
</svg>
